<?xml version="1.0" encoding="utf-8"?>
<!-- Generator: Adobe Illustrator 19.2.0, SVG Export Plug-In . SVG Version: 6.00 Build 0)  -->
<svg version="1.1" id="Layer_1" xmlns="http://www.w3.org/2000/svg" xmlns:xlink="http://www.w3.org/1999/xlink" x="0px" y="0px"
	 viewBox="0 0 335.6 137" style="enable-background:new 0 0 335.6 137;" xml:space="preserve">
<style type="text/css">
	.st0{fill:#736658;}
	.st1{fill:#EF659E;}
</style>
<title>logotype</title>
<path class="st0" d="M106.9,48.4c-1.6-0.2-3.4,0.7-3.8,3.3c-0.4,1.7,0.6,3.4,2.3,3.9c0.1,0,0.2,0.1,0.3,0.1c1.9,0.3,3.6-1,3.9-3.2
	c0.4-1.8-0.8-3.6-2.6-4C107,48.5,107,48.5,106.9,48.4"/>
<path class="st0" d="M187.7,82.8c-8.9,0.1-16.9,5.7-20,14.1c-0.4,1.2,0.2,2.5,1.4,3l2,0.8c0.3,0.1,0.5,0.1,0.8,0.2
	c0.3,0,0.7-0.1,1-0.2c0.6-0.3,1-0.8,1.2-1.3c2.4-7.1,8-12,13.6-12c10.5,0,15.9,9.7,15.9,19.4c0,11.2-3.7,24.4-21.6,24.4
	c-13.4,0-19.3-12.6-24.5-23.7l-0.7-1.5c-2.3-4.9-4.3-9.1-6.8-12c7.1-6,14-18.4,14-25.2c0-4.2-2.6-5.7-5.1-5.7
	c-1.9,0.1-3.7,0.8-5.2,2c5.2-15.1,7.9-25.4,7.9-30.5c0-4.9-2.5-6.6-4.8-6.6c-8.1,0-12.4,19.5-18.5,60.4
	c-6.1,16.1-9.3,23.9-14.5,24.3c-5.4-0.2-5.9-10.7-5.9-13.9c0-15.3,6.7-31.5,10.3-31.5c1.3,0,2.4,3.7,2.4,6.8
	c-0.2,4.6-1.7,9.1-4.3,12.9c-0.7,1.1-0.4,2.5,0.7,3.2l1.9,1.3c0.5,0.3,1.2,0.5,1.8,0.3c0.6-0.1,1.1-0.5,1.5-1
	c3-4.7,4.6-10.2,4.6-15.8c0-7.3-3.3-12-8.4-12c-7.7,0-13.6,12.4-15.9,24.7c-4.2,11-8.7,22.4-11.2,24.3c-0.1-0.7-0.1-2.3-0.1-3.6
	c0-7.3,2.7-21.8,5.4-35.9l1.2-6.5c0.2-1.3-0.6-2.5-1.8-2.7c-0.2,0-0.3,0-0.5,0h-2.1c-1.1,0-2.1,0.8-2.3,1.9l-0.3,1.3
	c-1.3,6.8-2.9,14.6-4,21.4c-6.7,17.3-11,23.9-12.2,24.6c-0.3-1.3-0.5-2.7-0.4-4.1C84,104,86.2,96.6,88.1,90c2-7.1,3.9-13.7,3.9-18
	c0.1-2.6-0.8-5.2-2.6-7.2c-1.1-1.2-2.7-1.8-4.3-1.8c-1.7,0-4.2,0.7-7.1,3.8c5.6-16.2,8.5-27.1,8.5-32.5c0-4.9-2.5-6.6-4.8-6.6
	C72.9,27.8,68,53,61.9,99.5l-0.4,3.2c-1.4,5.8-2.1,10.9-2.2,11.5c-0.1,0.7,0.1,1.4,0.6,1.9c0.4,0.5,1.1,0.8,1.8,0.8h2.2
	c1.2,0,2.1-0.9,2.3-2c0.6-4.2,1.3-8.7,1.7-12.9c6.2-18.2,14-32.9,16.6-33.5c0.6,0,0.9,1.9,0.9,3.6c0,2.5-1.9,9.2-3.5,15l-0.1,0.2
	c-2.2,8-4.6,16.2-4.6,20.9c0,8.3,5,9.2,7.1,9.2c3.4,0,6.6-3.1,10.2-10.1c0.1,6.7,2,10.1,5.7,10.1c4.8,0,7.9-4.8,11.3-12.5
	c1.2,8.1,5.1,12.5,10.9,12.5c5.2,0,9.1-2.4,12.5-7.8c-0.3,1.8-0.6,3.3-0.8,4.5c-0.1,0.7,0,1.4,0.5,1.9c0.4,0.5,1.1,0.9,1.8,0.8h2.4
	c1.2,0,2.1-0.9,2.3-2c0.9-5.8,1.7-12,2.5-17.8c0.4-0.1,0.8-0.1,1.1-0.2c2.1,1.9,4.1,6.5,6,11c5,11.7,11.8,27.7,31,27.7
	c18.6,0,28.4-14.4,28.4-28.6C210.2,95.3,203.1,82.8,187.7,82.8z M81.2,34c-0.5,5.4-3.6,16.1-6.5,25C77.2,46,79.8,37.3,81.2,34z
	 M156,34.3c-0.5,5.6-3.6,16.6-6.7,26.1C151.9,47.4,154.4,38.1,156,34.3z M146,89.6c5.9-14.9,10.7-20.8,12.5-21.8
	C158.3,72.4,151.4,85.2,146,89.6z"/>
<path class="st0" d="M74.4,62.6c-0.4,0-0.8,0.3-1,0.7c-16.6,43.8-26.2,66.8-44.8,68.2c-18.1-0.7-20.8-25.5-20.8-40.3
	c0-37,16.3-86.6,32.9-86.6c6.9,0,11.6,8,11.6,20c0,11.8-4.6,25.5-12.5,37.6c-0.4,0.5-0.3,1.2,0.2,1.6c0,0,0,0,0,0l5.2,3.5
	c0.2,0.2,0.5,0.2,0.8,0.2c0.3-0.1,0.5-0.2,0.7-0.5C54.3,55,58.3,41.3,58.5,27.2C58.5,10.7,51.6,0,40.9,0C18.9,0.1,0,50.3,0,91.5
	c0,28.7,9.2,45.1,25.3,45.1c25.4,0,34.9-24.7,52.1-69.5l0.3-0.7c0-0.1,0.1-0.3,0.1-0.4v-0.6C77.8,63.8,76.3,62.6,74.4,62.6"/>
<polygon class="st1" points="208.6,32.8 195.3,32.8 195.3,116.6 186.9,116.6 186.9,32.8 173.6,32.8 173.6,24.9 208.6,24.9 "/>
<polygon class="st1" points="247.1,116.6 216.7,116.6 216.7,24.9 245.8,24.9 245.8,33 225.1,33 225.1,63.6 239.6,63.6 239.6,71.7 
	225.1,71.7 225.1,108.5 247.1,108.5 "/>
<path class="st1" d="M290.1,96.2c-1.3,7.2-3.2,12.5-5.6,15.9c-2.8,3.9-7.4,6.2-12.3,6c-6.5,0-11.2-4-14-12.1
	c-2.6-7.4-3.9-19.2-3.9-35.2c0-15.7,1.3-27.4,4-35.1c3-8.1,7.7-12.2,14.1-12.2c4.7-0.2,9.1,2.1,11.6,6c2.5,3.6,4.4,9.1,5.7,16.6
	l-8.2,2.2c-1.3-6.5-2.7-10.9-4-13.2s-3.1-3.5-5.3-3.5c-6.3,0-9.4,13.1-9.4,39.2c0,13.8,0.8,23.8,2.4,29.9s4.1,9.2,7.6,9.2
	c2.4,0,4.2-1.3,5.6-3.8c1.3-2.3,2.5-6.4,3.6-12.3L290.1,96.2z"/>
<polygon class="st1" points="335.7,116.6 327.3,116.6 327.3,71.7 307.7,71.7 307.7,116.6 299.4,116.6 299.4,24.9 307.7,24.9 
	307.7,63.7 327.3,63.7 327.3,24.9 335.7,24.9 "/>
</svg>
